<?xml version="1.0" encoding="UTF-8"?>
<svg xmlns="http://www.w3.org/2000/svg" xmlns:xlink="http://www.w3.org/1999/xlink" width="1233.07pt" height="737.008pt" viewBox="0 0 1233.07 737.008" version="1.1">
<defs>
<clipPath id="clip1">
  <path d="M 0 0 L 1233.070312 0 L 1233.070312 737.007812 L 0 737.007812 Z M 0 0 "/>
</clipPath>
<clipPath id="clip2">
  <path d="M 0 0 L 1233.070312 0 L 1233.070312 723 L 0 723 Z M 0 0 "/>
</clipPath>
</defs>
<g id="surface1">
<g clip-path="url(#clip1)" clip-rule="nonzero">
<path style=" stroke:none;fill-rule:nonzero;fill:rgb(100%,100%,100%);fill-opacity:1;" d="M 0 737.007812 L 1233.085938 -0.0078125 "/>
</g>
<path style="fill:none;stroke-width:3.9851;stroke-linecap:butt;stroke-linejoin:miter;stroke:rgb(79.606628%,23.527527%,19.999695%);stroke-opacity:0.7;stroke-dasharray:3.9851,1.99255;stroke-miterlimit:10;" d="M 0.0011875 425.20125 L 0.0011875 -0.001875 " transform="matrix(1,0,0,-1,70.866,637.795)"/>
<path style=" stroke:none;fill-rule:nonzero;fill:rgb(79.606628%,23.527527%,19.999695%);fill-opacity:1;" d="M 113.386719 212.59375 C 113.386719 189.109375 94.347656 170.074219 70.867188 170.074219 C 47.382812 170.074219 28.347656 189.109375 28.347656 212.59375 C 28.347656 236.078125 47.382812 255.113281 70.867188 255.113281 C 94.347656 255.113281 113.386719 236.078125 113.386719 212.59375 Z M 113.386719 212.59375 "/>
<path style="fill:none;stroke-width:3.9851;stroke-linecap:butt;stroke-linejoin:miter;stroke:rgb(25.097656%,38.822937%,84.70459%);stroke-opacity:0.7;stroke-dasharray:3.9851,1.99255;stroke-miterlimit:10;" d="M 113.387906 -28.345625 L 113.387906 56.693438 " transform="matrix(1,0,0,-1,70.866,637.795)"/>
<path style=" stroke:none;fill-rule:nonzero;fill:rgb(25.097656%,38.822937%,84.70459%);fill-opacity:1;" d="M 226.773438 666.140625 C 226.773438 642.660156 207.738281 623.621094 184.253906 623.621094 C 160.769531 623.621094 141.734375 642.660156 141.734375 666.140625 C 141.734375 689.625 160.769531 708.660156 184.253906 708.660156 C 207.738281 708.660156 226.773438 689.625 226.773438 666.140625 Z M 226.773438 666.140625 "/>
<path style="fill:none;stroke-width:3.9851;stroke-linecap:butt;stroke-linejoin:miter;stroke:rgb(25.097656%,38.822937%,84.70459%);stroke-opacity:0.7;stroke-dasharray:3.9851,1.99255;stroke-miterlimit:10;" d="M 226.774625 226.775469 L 226.774625 113.38875 " transform="matrix(1,0,0,-1,70.866,637.795)"/>
<path style=" stroke:none;fill-rule:nonzero;fill:rgb(25.097656%,38.822937%,84.70459%);fill-opacity:1;" d="M 340.160156 411.019531 C 340.160156 387.535156 321.125 368.5 297.640625 368.5 C 274.15625 368.5 255.121094 387.535156 255.121094 411.019531 C 255.121094 434.503906 274.15625 453.539062 297.640625 453.539062 C 321.125 453.539062 340.160156 434.503906 340.160156 411.019531 Z M 340.160156 411.019531 "/>
<path style="fill:none;stroke-width:3.9851;stroke-linecap:butt;stroke-linejoin:miter;stroke:rgb(21.961975%,59.606934%,14.901733%);stroke-opacity:0.7;stroke-dasharray:3.9851,1.99255;stroke-miterlimit:10;" d="M 340.161344 113.38875 L 340.161344 170.080156 " transform="matrix(1,0,0,-1,70.866,637.795)"/>
<path style=" stroke:none;fill-rule:nonzero;fill:rgb(21.961975%,59.606934%,14.901733%);fill-opacity:1;" d="M 453.546875 524.40625 C 453.546875 500.925781 434.511719 481.886719 411.027344 481.886719 C 387.542969 481.886719 368.507812 500.925781 368.507812 524.40625 C 368.507812 547.890625 387.542969 566.929688 411.027344 566.929688 C 434.511719 566.929688 453.546875 547.890625 453.546875 524.40625 Z M 453.546875 524.40625 "/>
<path style="fill:none;stroke-width:3.9851;stroke-linecap:butt;stroke-linejoin:miter;stroke:rgb(79.606628%,23.527527%,19.999695%);stroke-opacity:0.7;stroke-dasharray:3.9851,1.99255;stroke-miterlimit:10;" d="M 453.548063 -28.345625 L 453.548063 226.775469 " transform="matrix(1,0,0,-1,70.866,637.795)"/>
<path style=" stroke:none;fill-rule:nonzero;fill:rgb(79.606628%,23.527527%,19.999695%);fill-opacity:1;" d="M 566.933594 666.140625 C 566.933594 642.660156 547.898438 623.621094 524.414062 623.621094 C 500.929688 623.621094 481.894531 642.660156 481.894531 666.140625 C 481.894531 689.625 500.929688 708.660156 524.414062 708.660156 C 547.898438 708.660156 566.933594 689.625 566.933594 666.140625 Z M 566.933594 666.140625 "/>
<path style="fill:none;stroke-width:3.9851;stroke-linecap:butt;stroke-linejoin:miter;stroke:rgb(58.428955%,34.510803%,69.802856%);stroke-opacity:0.7;stroke-dasharray:3.9851,1.99255;stroke-miterlimit:10;" d="M 566.934781 453.548906 L 566.934781 283.466875 " transform="matrix(1,0,0,-1,70.866,637.795)"/>
<path style=" stroke:none;fill-rule:nonzero;fill:rgb(58.428955%,34.510803%,69.802856%);fill-opacity:1;" d="M 680.324219 184.246094 C 680.324219 160.761719 661.285156 141.726562 637.800781 141.726562 C 614.320312 141.726562 595.28125 160.761719 595.28125 184.246094 C 595.28125 207.730469 614.320312 226.765625 637.800781 226.765625 C 661.285156 226.765625 680.324219 207.730469 680.324219 184.246094 Z M 680.324219 184.246094 "/>
<path style="fill:none;stroke-width:3.9851;stroke-linecap:butt;stroke-linejoin:miter;stroke:rgb(21.961975%,59.606934%,14.901733%);stroke-opacity:0.7;stroke-dasharray:3.9851,1.99255;stroke-miterlimit:10;" d="M 680.3215 283.466875 L 680.3215 340.162188 " transform="matrix(1,0,0,-1,70.866,637.795)"/>
<path style=" stroke:none;fill-rule:nonzero;fill:rgb(21.961975%,59.606934%,14.901733%);fill-opacity:1;" d="M 793.710938 354.328125 C 793.710938 330.84375 774.671875 311.808594 751.1875 311.808594 C 727.707031 311.808594 708.667969 330.84375 708.667969 354.328125 C 708.667969 377.808594 727.707031 396.847656 751.1875 396.847656 C 774.671875 396.847656 793.710938 377.808594 793.710938 354.328125 Z M 793.710938 354.328125 "/>
<path style="fill:none;stroke-width:3.9851;stroke-linecap:butt;stroke-linejoin:miter;stroke:rgb(58.428955%,34.510803%,69.802856%);stroke-opacity:0.7;stroke-dasharray:3.9851,1.99255;stroke-miterlimit:10;" d="M 793.712125 198.427813 L 793.712125 396.853594 " transform="matrix(1,0,0,-1,70.866,637.795)"/>
<path style=" stroke:none;fill-rule:nonzero;fill:rgb(58.428955%,34.510803%,69.802856%);fill-opacity:1;" d="M 907.097656 439.367188 C 907.097656 415.882812 888.058594 396.847656 864.578125 396.847656 C 841.09375 396.847656 822.054688 415.882812 822.054688 439.367188 C 822.054688 462.851562 841.09375 481.886719 864.578125 481.886719 C 888.058594 481.886719 907.097656 462.851562 907.097656 439.367188 Z M 907.097656 439.367188 "/>
<path style="fill:none;stroke-width:3.9851;stroke-linecap:butt;stroke-linejoin:miter;stroke:rgb(58.428955%,34.510803%,69.802856%);stroke-opacity:0.7;stroke-dasharray:3.9851,1.99255;stroke-miterlimit:10;" d="M 907.098844 396.853594 L 907.098844 453.548906 " transform="matrix(1,0,0,-1,70.866,637.795)"/>
<path style=" stroke:none;fill-rule:nonzero;fill:rgb(21.961975%,59.606934%,14.901733%);fill-opacity:1;" d="M 1020.484375 240.941406 C 1020.484375 217.457031 1001.449219 198.417969 977.964844 198.417969 C 954.480469 198.417969 935.445312 217.457031 935.445312 240.941406 C 935.445312 264.421875 954.480469 283.460938 977.964844 283.460938 C 1001.449219 283.460938 1020.484375 264.421875 1020.484375 240.941406 Z M 1020.484375 240.941406 "/>
<path style="fill:none;stroke-width:3.9851;stroke-linecap:butt;stroke-linejoin:miter;stroke:rgb(21.961975%,59.606934%,14.901733%);stroke-opacity:0.7;stroke-dasharray:3.9851,1.99255;stroke-miterlimit:10;" d="M 1020.485563 566.935625 L 1020.485563 510.244219 " transform="matrix(1,0,0,-1,70.866,637.795)"/>
<path style=" stroke:none;fill-rule:nonzero;fill:rgb(21.961975%,59.606934%,14.901733%);fill-opacity:1;" d="M 1133.871094 70.859375 C 1133.871094 47.375 1114.835938 28.339844 1091.351562 28.339844 C 1067.867188 28.339844 1048.832031 47.375 1048.832031 70.859375 C 1048.832031 94.34375 1067.867188 113.378906 1091.351562 113.378906 C 1114.835938 113.378906 1133.871094 94.34375 1133.871094 70.859375 Z M 1133.871094 70.859375 "/>
<g clip-path="url(#clip2)" clip-rule="nonzero">
<path style="fill:none;stroke-width:5.97766;stroke-linecap:butt;stroke-linejoin:miter;stroke:rgb(0%,0%,0%);stroke-opacity:1;stroke-miterlimit:10;" d="M 0.0011875 -0.001875 L 1133.872281 566.935625 " transform="matrix(1,0,0,-1,70.866,637.795)"/>
</g>
</g>
</svg>
